<?xml version="1.0" encoding="UTF-8" standalone="no"?>
<!DOCTYPE svg PUBLIC "-//W3C//DTD SVG 1.1//EN"
 "http://www.w3.org/Graphics/SVG/1.1/DTD/svg11.dtd">
<!-- Generated by graphviz version 2.47.3 (20210619.1520)
 -->
<!-- Title: dependencies Pages: 1 -->
<svg width="1487pt" height="247pt"
 viewBox="0.00 0.00 1487.00 246.80" xmlns="http://www.w3.org/2000/svg" xmlns:xlink="http://www.w3.org/1999/xlink">
<g id="graph0" class="graph" transform="scale(1 1) rotate(0) translate(4 242.8)">
<title>dependencies</title>
<polygon fill="white" stroke="transparent" points="-4,4 -4,-242.8 1483,-242.8 1483,4 -4,4"/>
<text text-anchor="middle" x="739.5" y="-8.2" font-family="sans-serif" font-size="14.00">dependencies</text>
<g id="clust1" class="cluster">
<title>cluster_AppModule</title>
<polygon fill="none" stroke="black" stroke-dasharray="1,5" points="8,-32.8 8,-230.8 1471,-230.8 1471,-32.8 8,-32.8"/>
</g>
<g id="clust11" class="cluster">
<title>cluster_AppModule_imports</title>
<polygon fill="none" stroke="black" points="1319,-40.8 1319,-92.8 1463,-92.8 1463,-40.8 1319,-40.8"/>
</g>
<g id="clust13" class="cluster">
<title>cluster_AppModule_bootstrap</title>
<polygon fill="none" stroke="black" points="650,-170.8 650,-222.8 774,-222.8 774,-170.8 650,-170.8"/>
</g>
<g id="clust2" class="cluster">
<title>cluster_AppModule_declarations</title>
<polygon fill="none" stroke="black" points="16,-40.8 16,-92.8 1311,-92.8 1311,-40.8 16,-40.8"/>
</g>
<!-- AppComponent -->
<g id="node1" class="node">
<title>AppComponent</title>
<polygon fill="#ffffb3" stroke="black" points="1302.94,-84.8 1197.06,-84.8 1197.06,-48.8 1302.94,-48.8 1302.94,-84.8"/>
<text text-anchor="middle" x="1250" y="-62.6" font-family="Times,serif" font-size="14.00">AppComponent</text>
</g>
<!-- AppModule -->
<g id="node9" class="node">
<title>AppModule</title>
<polygon fill="#8dd3c7" stroke="black" points="753.66,-149.8 750.66,-153.8 729.66,-153.8 726.66,-149.8 670.34,-149.8 670.34,-113.8 753.66,-113.8 753.66,-149.8"/>
<text text-anchor="middle" x="712" y="-127.6" font-family="Times,serif" font-size="14.00">AppModule</text>
</g>
<!-- AppComponent&#45;&gt;AppModule -->
<g id="edge1" class="edge">
<title>AppComponent&#45;&gt;AppModule</title>
<path fill="none" stroke="black" d="M1250,-84.93C1250,-105.37 1250,-135.8 1250,-135.8 1250,-135.8 763.77,-135.8 763.77,-135.8"/>
<polygon fill="black" stroke="black" points="763.77,-132.3 753.77,-135.8 763.77,-139.3 763.77,-132.3"/>
</g>
<!-- DialogImgSelectComponent -->
<g id="node2" class="node">
<title>DialogImgSelectComponent</title>
<polygon fill="#ffffb3" stroke="black" points="1179.19,-84.8 1002.81,-84.8 1002.81,-48.8 1179.19,-48.8 1179.19,-84.8"/>
<text text-anchor="middle" x="1091" y="-62.6" font-family="Times,serif" font-size="14.00">DialogImgSelectComponent</text>
</g>
<!-- DialogImgSelectComponent&#45;&gt;AppModule -->
<g id="edge2" class="edge">
<title>DialogImgSelectComponent&#45;&gt;AppModule</title>
<path fill="none" stroke="black" d="M1091,-85.07C1091,-103.36 1091,-128.8 1091,-128.8 1091,-128.8 764.01,-128.8 764.01,-128.8"/>
<polygon fill="black" stroke="black" points="764.01,-125.3 754.01,-128.8 764.01,-132.3 764.01,-125.3"/>
</g>
<!-- DialogOverviewExampleDialog -->
<g id="node3" class="node">
<title>DialogOverviewExampleDialog</title>
<polygon fill="#ffffb3" stroke="black" points="984.66,-84.8 787.34,-84.8 787.34,-48.8 984.66,-48.8 984.66,-84.8"/>
<text text-anchor="middle" x="886" y="-62.6" font-family="Times,serif" font-size="14.00">DialogOverviewExampleDialog</text>
</g>
<!-- DialogOverviewExampleDialog&#45;&gt;AppModule -->
<g id="edge3" class="edge">
<title>DialogOverviewExampleDialog&#45;&gt;AppModule</title>
<path fill="none" stroke="black" d="M886,-84.81C886,-100.85 886,-121.8 886,-121.8 886,-121.8 763.68,-121.8 763.68,-121.8"/>
<polygon fill="black" stroke="black" points="763.68,-118.3 753.68,-121.8 763.68,-125.3 763.68,-118.3"/>
</g>
<!-- GameComponent -->
<g id="node4" class="node">
<title>GameComponent</title>
<polygon fill="#ffffb3" stroke="black" points="769.26,-84.8 654.74,-84.8 654.74,-48.8 769.26,-48.8 769.26,-84.8"/>
<text text-anchor="middle" x="712" y="-62.6" font-family="Times,serif" font-size="14.00">GameComponent</text>
</g>
<!-- GameComponent&#45;&gt;AppModule -->
<g id="edge4" class="edge">
<title>GameComponent&#45;&gt;AppModule</title>
<path fill="none" stroke="black" d="M712,-84.91C712,-84.91 712,-103.79 712,-103.79"/>
<polygon fill="black" stroke="black" points="708.5,-103.79 712,-113.79 715.5,-103.79 708.5,-103.79"/>
</g>
<!-- GameInfoComponent -->
<g id="node5" class="node">
<title>GameInfoComponent</title>
<polygon fill="#ffffb3" stroke="black" points="637.08,-84.8 498.92,-84.8 498.92,-48.8 637.08,-48.8 637.08,-84.8"/>
<text text-anchor="middle" x="568" y="-62.6" font-family="Times,serif" font-size="14.00">GameInfoComponent</text>
</g>
<!-- GameInfoComponent&#45;&gt;AppModule -->
<g id="edge5" class="edge">
<title>GameInfoComponent&#45;&gt;AppModule</title>
<path fill="none" stroke="black" d="M568,-84.81C568,-100.85 568,-121.8 568,-121.8 568,-121.8 659.96,-121.8 659.96,-121.8"/>
<polygon fill="black" stroke="black" points="659.96,-125.3 669.96,-121.8 659.96,-118.3 659.96,-125.3"/>
</g>
<!-- PlayerComponent -->
<g id="node6" class="node">
<title>PlayerComponent</title>
<polygon fill="#ffffb3" stroke="black" points="480.6,-84.8 363.4,-84.8 363.4,-48.8 480.6,-48.8 480.6,-84.8"/>
<text text-anchor="middle" x="422" y="-62.6" font-family="Times,serif" font-size="14.00">PlayerComponent</text>
</g>
<!-- PlayerComponent&#45;&gt;AppModule -->
<g id="edge6" class="edge">
<title>PlayerComponent&#45;&gt;AppModule</title>
<path fill="none" stroke="black" d="M422,-85.07C422,-103.36 422,-128.8 422,-128.8 422,-128.8 660.14,-128.8 660.14,-128.8"/>
<polygon fill="black" stroke="black" points="660.14,-132.3 670.14,-128.8 660.14,-125.3 660.14,-132.3"/>
</g>
<!-- PlayerMobileComponent -->
<g id="node7" class="node">
<title>PlayerMobileComponent</title>
<polygon fill="#ffffb3" stroke="black" points="345.54,-84.8 188.46,-84.8 188.46,-48.8 345.54,-48.8 345.54,-84.8"/>
<text text-anchor="middle" x="267" y="-62.6" font-family="Times,serif" font-size="14.00">PlayerMobileComponent</text>
</g>
<!-- PlayerMobileComponent&#45;&gt;AppModule -->
<g id="edge7" class="edge">
<title>PlayerMobileComponent&#45;&gt;AppModule</title>
<path fill="none" stroke="black" d="M267,-84.93C267,-105.37 267,-135.8 267,-135.8 267,-135.8 660.14,-135.8 660.14,-135.8"/>
<polygon fill="black" stroke="black" points="660.14,-139.3 670.14,-135.8 660.14,-132.3 660.14,-139.3"/>
</g>
<!-- StartScreenComponent -->
<g id="node8" class="node">
<title>StartScreenComponent</title>
<polygon fill="#ffffb3" stroke="black" points="169.86,-84.8 24.14,-84.8 24.14,-48.8 169.86,-48.8 169.86,-84.8"/>
<text text-anchor="middle" x="97" y="-62.6" font-family="Times,serif" font-size="14.00">StartScreenComponent</text>
</g>
<!-- StartScreenComponent&#45;&gt;AppModule -->
<g id="edge8" class="edge">
<title>StartScreenComponent&#45;&gt;AppModule</title>
<path fill="none" stroke="black" d="M97,-84.81C97,-107.29 97,-142.8 97,-142.8 97,-142.8 660.21,-142.8 660.21,-142.8"/>
<polygon fill="black" stroke="black" points="660.21,-146.3 670.21,-142.8 660.21,-139.3 660.21,-146.3"/>
</g>
<!-- AppComponent  -->
<g id="node11" class="node">
<title>AppComponent </title>
<polygon fill="#80b1d3" stroke="black" points="766.44,-214.8 657.56,-214.8 657.56,-178.8 766.44,-178.8 766.44,-214.8"/>
<text text-anchor="middle" x="712" y="-192.6" font-family="Times,serif" font-size="14.00">AppComponent </text>
</g>
<!-- AppModule&#45;&gt;AppComponent  -->
<g id="edge10" class="edge">
<title>AppModule&#45;&gt;AppComponent </title>
<path fill="none" stroke="black" stroke-dasharray="1,5" d="M712,-149.91C712,-149.91 712,-168.79 712,-168.79"/>
<polygon fill="black" stroke="black" points="708.5,-168.79 712,-178.79 715.5,-168.79 708.5,-168.79"/>
</g>
<!-- AppRoutingModule -->
<g id="node10" class="node">
<title>AppRoutingModule</title>
<polygon fill="#8dd3c7" stroke="black" points="1455.27,-84.8 1452.27,-88.8 1431.27,-88.8 1428.27,-84.8 1326.73,-84.8 1326.73,-48.8 1455.27,-48.8 1455.27,-84.8"/>
<text text-anchor="middle" x="1391" y="-62.6" font-family="Times,serif" font-size="14.00">AppRoutingModule</text>
</g>
<!-- AppRoutingModule&#45;&gt;AppModule -->
<g id="edge9" class="edge">
<title>AppRoutingModule&#45;&gt;AppModule</title>
<path fill="none" stroke="black" d="M1391,-84.81C1391,-107.29 1391,-142.8 1391,-142.8 1391,-142.8 763.71,-142.8 763.71,-142.8"/>
<polygon fill="black" stroke="black" points="763.71,-139.3 753.71,-142.8 763.71,-146.3 763.71,-139.3"/>
</g>
</g>
</svg>
