<?xml version="1.0" encoding="UTF-8" standalone="no"?>
<!DOCTYPE svg PUBLIC "-//W3C//DTD SVG 1.1//EN"
 "http://www.w3.org/Graphics/SVG/1.1/DTD/svg11.dtd">
<!-- Generated by graphviz version 2.47.3 (20210619.1520)
 -->
<!-- Title: dependencies Pages: 1 -->
<svg width="1647pt" height="247pt"
 viewBox="0.00 0.00 1647.00 246.80" xmlns="http://www.w3.org/2000/svg" xmlns:xlink="http://www.w3.org/1999/xlink">
<g id="graph0" class="graph" transform="scale(1 1) rotate(0) translate(4 242.8)">
<title>dependencies</title>
<polygon fill="white" stroke="transparent" points="-4,4 -4,-242.8 1643,-242.8 1643,4 -4,4"/>
<text text-anchor="middle" x="819.5" y="-8.2" font-family="sans-serif" font-size="14.00">dependencies</text>
<g id="clust1" class="cluster">
<title>cluster_AppModule</title>
<polygon fill="none" stroke="black" stroke-dasharray="1,5" points="8,-32.8 8,-230.8 1631,-230.8 1631,-32.8 8,-32.8"/>
</g>
<g id="clust12" class="cluster">
<title>cluster_AppModule_imports</title>
<polygon fill="none" stroke="black" points="1479,-40.8 1479,-92.8 1623,-92.8 1623,-40.8 1479,-40.8"/>
</g>
<g id="clust14" class="cluster">
<title>cluster_AppModule_bootstrap</title>
<polygon fill="none" stroke="black" points="737,-170.8 737,-222.8 861,-222.8 861,-170.8 737,-170.8"/>
</g>
<g id="clust2" class="cluster">
<title>cluster_AppModule_declarations</title>
<polygon fill="none" stroke="black" points="16,-40.8 16,-92.8 1471,-92.8 1471,-40.8 16,-40.8"/>
</g>
<!-- AppComponent -->
<g id="node1" class="node">
<title>AppComponent</title>
<polygon fill="#ffffb3" stroke="black" points="1462.94,-84.8 1357.06,-84.8 1357.06,-48.8 1462.94,-48.8 1462.94,-84.8"/>
<text text-anchor="middle" x="1410" y="-62.6" font-family="Times,serif" font-size="14.00">AppComponent</text>
</g>
<!-- AppModule -->
<g id="node10" class="node">
<title>AppModule</title>
<polygon fill="#8dd3c7" stroke="black" points="840.66,-149.8 837.66,-153.8 816.66,-153.8 813.66,-149.8 757.34,-149.8 757.34,-113.8 840.66,-113.8 840.66,-149.8"/>
<text text-anchor="middle" x="799" y="-127.6" font-family="Times,serif" font-size="14.00">AppModule</text>
</g>
<!-- AppComponent&#45;&gt;AppModule -->
<g id="edge1" class="edge">
<title>AppComponent&#45;&gt;AppModule</title>
<path fill="none" stroke="black" d="M1410,-84.93C1410,-105.37 1410,-135.8 1410,-135.8 1410,-135.8 851,-135.8 851,-135.8"/>
<polygon fill="black" stroke="black" points="851,-132.3 841,-135.8 851,-139.3 851,-132.3"/>
</g>
<!-- DialogImgSelectComponent -->
<g id="node2" class="node">
<title>DialogImgSelectComponent</title>
<polygon fill="#ffffb3" stroke="black" points="1339.19,-84.8 1162.81,-84.8 1162.81,-48.8 1339.19,-48.8 1339.19,-84.8"/>
<text text-anchor="middle" x="1251" y="-62.6" font-family="Times,serif" font-size="14.00">DialogImgSelectComponent</text>
</g>
<!-- DialogImgSelectComponent&#45;&gt;AppModule -->
<g id="edge2" class="edge">
<title>DialogImgSelectComponent&#45;&gt;AppModule</title>
<path fill="none" stroke="black" d="M1251,-85.07C1251,-103.36 1251,-128.8 1251,-128.8 1251,-128.8 850.71,-128.8 850.71,-128.8"/>
<polygon fill="black" stroke="black" points="850.71,-125.3 840.71,-128.8 850.71,-132.3 850.71,-125.3"/>
</g>
<!-- DialogInfoComponent -->
<g id="node3" class="node">
<title>DialogInfoComponent</title>
<polygon fill="#ffffb3" stroke="black" points="1145.26,-84.8 1002.74,-84.8 1002.74,-48.8 1145.26,-48.8 1145.26,-84.8"/>
<text text-anchor="middle" x="1074" y="-62.6" font-family="Times,serif" font-size="14.00">DialogInfoComponent</text>
</g>
<!-- DialogInfoComponent&#45;&gt;AppModule -->
<g id="edge3" class="edge">
<title>DialogInfoComponent&#45;&gt;AppModule</title>
<path fill="none" stroke="black" d="M1074,-84.81C1074,-100.85 1074,-121.8 1074,-121.8 1074,-121.8 850.77,-121.8 850.77,-121.8"/>
<polygon fill="black" stroke="black" points="850.77,-118.3 840.77,-121.8 850.77,-125.3 850.77,-118.3"/>
</g>
<!-- DialogOverviewExampleDialog -->
<g id="node4" class="node">
<title>DialogOverviewExampleDialog</title>
<polygon fill="#ffffb3" stroke="black" points="984.66,-84.8 787.34,-84.8 787.34,-48.8 984.66,-48.8 984.66,-84.8"/>
<text text-anchor="middle" x="886" y="-62.6" font-family="Times,serif" font-size="14.00">DialogOverviewExampleDialog</text>
</g>
<!-- DialogOverviewExampleDialog&#45;&gt;AppModule -->
<g id="edge4" class="edge">
<title>DialogOverviewExampleDialog&#45;&gt;AppModule</title>
<path fill="none" stroke="black" d="M814.12,-84.91C814.12,-84.91 814.12,-103.79 814.12,-103.79"/>
<polygon fill="black" stroke="black" points="810.62,-103.79 814.12,-113.79 817.62,-103.79 810.62,-103.79"/>
</g>
<!-- GameComponent -->
<g id="node5" class="node">
<title>GameComponent</title>
<polygon fill="#ffffb3" stroke="black" points="769.26,-84.8 654.74,-84.8 654.74,-48.8 769.26,-48.8 769.26,-84.8"/>
<text text-anchor="middle" x="712" y="-62.6" font-family="Times,serif" font-size="14.00">GameComponent</text>
</g>
<!-- GameComponent&#45;&gt;AppModule -->
<g id="edge5" class="edge">
<title>GameComponent&#45;&gt;AppModule</title>
<path fill="none" stroke="black" d="M763.28,-84.91C763.28,-84.91 763.28,-103.79 763.28,-103.79"/>
<polygon fill="black" stroke="black" points="759.78,-103.79 763.28,-113.79 766.78,-103.79 759.78,-103.79"/>
</g>
<!-- GameInfoComponent -->
<g id="node6" class="node">
<title>GameInfoComponent</title>
<polygon fill="#ffffb3" stroke="black" points="637.08,-84.8 498.92,-84.8 498.92,-48.8 637.08,-48.8 637.08,-84.8"/>
<text text-anchor="middle" x="568" y="-62.6" font-family="Times,serif" font-size="14.00">GameInfoComponent</text>
</g>
<!-- GameInfoComponent&#45;&gt;AppModule -->
<g id="edge6" class="edge">
<title>GameInfoComponent&#45;&gt;AppModule</title>
<path fill="none" stroke="black" d="M568,-84.81C568,-100.85 568,-121.8 568,-121.8 568,-121.8 747.17,-121.8 747.17,-121.8"/>
<polygon fill="black" stroke="black" points="747.17,-125.3 757.17,-121.8 747.17,-118.3 747.17,-125.3"/>
</g>
<!-- PlayerComponent -->
<g id="node7" class="node">
<title>PlayerComponent</title>
<polygon fill="#ffffb3" stroke="black" points="480.6,-84.8 363.4,-84.8 363.4,-48.8 480.6,-48.8 480.6,-84.8"/>
<text text-anchor="middle" x="422" y="-62.6" font-family="Times,serif" font-size="14.00">PlayerComponent</text>
</g>
<!-- PlayerComponent&#45;&gt;AppModule -->
<g id="edge7" class="edge">
<title>PlayerComponent&#45;&gt;AppModule</title>
<path fill="none" stroke="black" d="M422,-85.07C422,-103.36 422,-128.8 422,-128.8 422,-128.8 747.21,-128.8 747.21,-128.8"/>
<polygon fill="black" stroke="black" points="747.21,-132.3 757.21,-128.8 747.21,-125.3 747.21,-132.3"/>
</g>
<!-- PlayerMobileComponent -->
<g id="node8" class="node">
<title>PlayerMobileComponent</title>
<polygon fill="#ffffb3" stroke="black" points="345.54,-84.8 188.46,-84.8 188.46,-48.8 345.54,-48.8 345.54,-84.8"/>
<text text-anchor="middle" x="267" y="-62.6" font-family="Times,serif" font-size="14.00">PlayerMobileComponent</text>
</g>
<!-- PlayerMobileComponent&#45;&gt;AppModule -->
<g id="edge8" class="edge">
<title>PlayerMobileComponent&#45;&gt;AppModule</title>
<path fill="none" stroke="black" d="M267,-84.93C267,-105.37 267,-135.8 267,-135.8 267,-135.8 747.25,-135.8 747.25,-135.8"/>
<polygon fill="black" stroke="black" points="747.25,-139.3 757.25,-135.8 747.25,-132.3 747.25,-139.3"/>
</g>
<!-- StartScreenComponent -->
<g id="node9" class="node">
<title>StartScreenComponent</title>
<polygon fill="#ffffb3" stroke="black" points="169.86,-84.8 24.14,-84.8 24.14,-48.8 169.86,-48.8 169.86,-84.8"/>
<text text-anchor="middle" x="97" y="-62.6" font-family="Times,serif" font-size="14.00">StartScreenComponent</text>
</g>
<!-- StartScreenComponent&#45;&gt;AppModule -->
<g id="edge9" class="edge">
<title>StartScreenComponent&#45;&gt;AppModule</title>
<path fill="none" stroke="black" d="M97,-84.81C97,-107.29 97,-142.8 97,-142.8 97,-142.8 747.19,-142.8 747.19,-142.8"/>
<polygon fill="black" stroke="black" points="747.19,-146.3 757.19,-142.8 747.19,-139.3 747.19,-146.3"/>
</g>
<!-- AppComponent  -->
<g id="node12" class="node">
<title>AppComponent </title>
<polygon fill="#80b1d3" stroke="black" points="853.44,-214.8 744.56,-214.8 744.56,-178.8 853.44,-178.8 853.44,-214.8"/>
<text text-anchor="middle" x="799" y="-192.6" font-family="Times,serif" font-size="14.00">AppComponent </text>
</g>
<!-- AppModule&#45;&gt;AppComponent  -->
<g id="edge11" class="edge">
<title>AppModule&#45;&gt;AppComponent </title>
<path fill="none" stroke="black" stroke-dasharray="1,5" d="M799,-149.91C799,-149.91 799,-168.79 799,-168.79"/>
<polygon fill="black" stroke="black" points="795.5,-168.79 799,-178.79 802.5,-168.79 795.5,-168.79"/>
</g>
<!-- AppRoutingModule -->
<g id="node11" class="node">
<title>AppRoutingModule</title>
<polygon fill="#8dd3c7" stroke="black" points="1615.27,-84.8 1612.27,-88.8 1591.27,-88.8 1588.27,-84.8 1486.73,-84.8 1486.73,-48.8 1615.27,-48.8 1615.27,-84.8"/>
<text text-anchor="middle" x="1551" y="-62.6" font-family="Times,serif" font-size="14.00">AppRoutingModule</text>
</g>
<!-- AppRoutingModule&#45;&gt;AppModule -->
<g id="edge10" class="edge">
<title>AppRoutingModule&#45;&gt;AppModule</title>
<path fill="none" stroke="black" d="M1551,-84.81C1551,-107.29 1551,-142.8 1551,-142.8 1551,-142.8 850.77,-142.8 850.77,-142.8"/>
<polygon fill="black" stroke="black" points="850.77,-139.3 840.77,-142.8 850.77,-146.3 850.77,-139.3"/>
</g>
</g>
</svg>
