<?xml version="1.0" encoding="UTF-8" standalone="no"?>
<!DOCTYPE svg PUBLIC "-//W3C//DTD SVG 1.1//EN"
 "http://www.w3.org/Graphics/SVG/1.1/DTD/svg11.dtd">
<!-- Generated by graphviz version 2.47.3 (20210619.1520)
 -->
<!-- Title: dependencies Pages: 1 -->
<svg width="1647pt" height="247pt"
 viewBox="0.00 0.00 1647.00 246.80" xmlns="http://www.w3.org/2000/svg" xmlns:xlink="http://www.w3.org/1999/xlink">
<g id="graph0" class="graph" transform="scale(1 1) rotate(0) translate(4 242.8)">
<title>dependencies</title>
<polygon fill="white" stroke="transparent" points="-4,4 -4,-242.8 1643,-242.8 1643,4 -4,4"/>
<text text-anchor="middle" x="819.5" y="-8.2" font-family="sans-serif" font-size="14.00">dependencies</text>
<g id="clust1" class="cluster">
<title>cluster_AppModule</title>
<polygon fill="none" stroke="black" stroke-dasharray="1,5" points="8,-32.8 8,-230.8 1631,-230.8 1631,-32.8 8,-32.8"/>
</g>
<g id="clust2" class="cluster">
<title>cluster_AppModule_declarations</title>
<polygon fill="none" stroke="black" points="168,-40.8 168,-92.8 1623,-92.8 1623,-40.8 168,-40.8"/>
</g>
<g id="clust12" class="cluster">
<title>cluster_AppModule_imports</title>
<polygon fill="none" stroke="black" points="16,-40.8 16,-92.8 160,-92.8 160,-40.8 16,-40.8"/>
</g>
<g id="clust14" class="cluster">
<title>cluster_AppModule_bootstrap</title>
<polygon fill="none" stroke="black" points="730,-170.8 730,-222.8 854,-222.8 854,-170.8 730,-170.8"/>
</g>
<!-- AppComponent -->
<g id="node1" class="node">
<title>AppComponent</title>
<polygon fill="#ffffb3" stroke="black" points="1614.94,-84.8 1509.06,-84.8 1509.06,-48.8 1614.94,-48.8 1614.94,-84.8"/>
<text text-anchor="middle" x="1562" y="-62.6" font-family="Times,serif" font-size="14.00">AppComponent</text>
</g>
<!-- AppModule -->
<g id="node10" class="node">
<title>AppModule</title>
<polygon fill="#8dd3c7" stroke="black" points="833.66,-149.8 830.66,-153.8 809.66,-153.8 806.66,-149.8 750.34,-149.8 750.34,-113.8 833.66,-113.8 833.66,-149.8"/>
<text text-anchor="middle" x="792" y="-127.6" font-family="Times,serif" font-size="14.00">AppModule</text>
</g>
<!-- AppComponent&#45;&gt;AppModule -->
<g id="edge1" class="edge">
<title>AppComponent&#45;&gt;AppModule</title>
<path fill="none" stroke="black" d="M1562,-84.81C1562,-107.29 1562,-142.8 1562,-142.8 1562,-142.8 843.67,-142.8 843.67,-142.8"/>
<polygon fill="black" stroke="black" points="843.67,-139.3 833.67,-142.8 843.67,-146.3 843.67,-139.3"/>
</g>
<!-- DialogImgSelectComponent -->
<g id="node2" class="node">
<title>DialogImgSelectComponent</title>
<polygon fill="#ffffb3" stroke="black" points="1491.19,-84.8 1314.81,-84.8 1314.81,-48.8 1491.19,-48.8 1491.19,-84.8"/>
<text text-anchor="middle" x="1403" y="-62.6" font-family="Times,serif" font-size="14.00">DialogImgSelectComponent</text>
</g>
<!-- DialogImgSelectComponent&#45;&gt;AppModule -->
<g id="edge2" class="edge">
<title>DialogImgSelectComponent&#45;&gt;AppModule</title>
<path fill="none" stroke="black" d="M1403,-84.93C1403,-105.37 1403,-135.8 1403,-135.8 1403,-135.8 844,-135.8 844,-135.8"/>
<polygon fill="black" stroke="black" points="844,-132.3 834,-135.8 844,-139.3 844,-132.3"/>
</g>
<!-- DialogInfoComponent -->
<g id="node3" class="node">
<title>DialogInfoComponent</title>
<polygon fill="#ffffb3" stroke="black" points="1297.26,-84.8 1154.74,-84.8 1154.74,-48.8 1297.26,-48.8 1297.26,-84.8"/>
<text text-anchor="middle" x="1226" y="-62.6" font-family="Times,serif" font-size="14.00">DialogInfoComponent</text>
</g>
<!-- DialogInfoComponent&#45;&gt;AppModule -->
<g id="edge3" class="edge">
<title>DialogInfoComponent&#45;&gt;AppModule</title>
<path fill="none" stroke="black" d="M1226,-85.07C1226,-103.36 1226,-128.8 1226,-128.8 1226,-128.8 844.01,-128.8 844.01,-128.8"/>
<polygon fill="black" stroke="black" points="844.01,-125.3 834.01,-128.8 844.01,-132.3 844.01,-125.3"/>
</g>
<!-- DialogOverviewExampleDialog -->
<g id="node4" class="node">
<title>DialogOverviewExampleDialog</title>
<polygon fill="#ffffb3" stroke="black" points="1136.66,-84.8 939.34,-84.8 939.34,-48.8 1136.66,-48.8 1136.66,-84.8"/>
<text text-anchor="middle" x="1038" y="-62.6" font-family="Times,serif" font-size="14.00">DialogOverviewExampleDialog</text>
</g>
<!-- DialogOverviewExampleDialog&#45;&gt;AppModule -->
<g id="edge4" class="edge">
<title>DialogOverviewExampleDialog&#45;&gt;AppModule</title>
<path fill="none" stroke="black" d="M1038,-84.81C1038,-100.85 1038,-121.8 1038,-121.8 1038,-121.8 843.73,-121.8 843.73,-121.8"/>
<polygon fill="black" stroke="black" points="843.73,-118.3 833.73,-121.8 843.73,-125.3 843.73,-118.3"/>
</g>
<!-- GameComponent -->
<g id="node5" class="node">
<title>GameComponent</title>
<polygon fill="#ffffb3" stroke="black" points="921.26,-84.8 806.74,-84.8 806.74,-48.8 921.26,-48.8 921.26,-84.8"/>
<text text-anchor="middle" x="864" y="-62.6" font-family="Times,serif" font-size="14.00">GameComponent</text>
</g>
<!-- GameComponent&#45;&gt;AppModule -->
<g id="edge5" class="edge">
<title>GameComponent&#45;&gt;AppModule</title>
<path fill="none" stroke="black" d="M820.22,-84.91C820.22,-84.91 820.22,-103.79 820.22,-103.79"/>
<polygon fill="black" stroke="black" points="816.72,-103.79 820.22,-113.79 823.72,-103.79 816.72,-103.79"/>
</g>
<!-- GameInfoComponent -->
<g id="node6" class="node">
<title>GameInfoComponent</title>
<polygon fill="#ffffb3" stroke="black" points="789.08,-84.8 650.92,-84.8 650.92,-48.8 789.08,-48.8 789.08,-84.8"/>
<text text-anchor="middle" x="720" y="-62.6" font-family="Times,serif" font-size="14.00">GameInfoComponent</text>
</g>
<!-- GameInfoComponent&#45;&gt;AppModule -->
<g id="edge6" class="edge">
<title>GameInfoComponent&#45;&gt;AppModule</title>
<path fill="none" stroke="black" d="M769.61,-84.91C769.61,-84.91 769.61,-103.79 769.61,-103.79"/>
<polygon fill="black" stroke="black" points="766.11,-103.79 769.61,-113.79 773.11,-103.79 766.11,-103.79"/>
</g>
<!-- PlayerComponent -->
<g id="node7" class="node">
<title>PlayerComponent</title>
<polygon fill="#ffffb3" stroke="black" points="632.6,-84.8 515.4,-84.8 515.4,-48.8 632.6,-48.8 632.6,-84.8"/>
<text text-anchor="middle" x="574" y="-62.6" font-family="Times,serif" font-size="14.00">PlayerComponent</text>
</g>
<!-- PlayerComponent&#45;&gt;AppModule -->
<g id="edge7" class="edge">
<title>PlayerComponent&#45;&gt;AppModule</title>
<path fill="none" stroke="black" d="M574,-84.81C574,-100.85 574,-121.8 574,-121.8 574,-121.8 740.23,-121.8 740.23,-121.8"/>
<polygon fill="black" stroke="black" points="740.23,-125.3 750.23,-121.8 740.23,-118.3 740.23,-125.3"/>
</g>
<!-- PlayerMobileComponent -->
<g id="node8" class="node">
<title>PlayerMobileComponent</title>
<polygon fill="#ffffb3" stroke="black" points="497.54,-84.8 340.46,-84.8 340.46,-48.8 497.54,-48.8 497.54,-84.8"/>
<text text-anchor="middle" x="419" y="-62.6" font-family="Times,serif" font-size="14.00">PlayerMobileComponent</text>
</g>
<!-- PlayerMobileComponent&#45;&gt;AppModule -->
<g id="edge8" class="edge">
<title>PlayerMobileComponent&#45;&gt;AppModule</title>
<path fill="none" stroke="black" d="M419,-85.07C419,-103.36 419,-128.8 419,-128.8 419,-128.8 740.3,-128.8 740.3,-128.8"/>
<polygon fill="black" stroke="black" points="740.3,-132.3 750.3,-128.8 740.3,-125.3 740.3,-132.3"/>
</g>
<!-- StartScreenComponent -->
<g id="node9" class="node">
<title>StartScreenComponent</title>
<polygon fill="#ffffb3" stroke="black" points="321.86,-84.8 176.14,-84.8 176.14,-48.8 321.86,-48.8 321.86,-84.8"/>
<text text-anchor="middle" x="249" y="-62.6" font-family="Times,serif" font-size="14.00">StartScreenComponent</text>
</g>
<!-- StartScreenComponent&#45;&gt;AppModule -->
<g id="edge9" class="edge">
<title>StartScreenComponent&#45;&gt;AppModule</title>
<path fill="none" stroke="black" d="M249,-84.93C249,-105.37 249,-135.8 249,-135.8 249,-135.8 740.29,-135.8 740.29,-135.8"/>
<polygon fill="black" stroke="black" points="740.29,-139.3 750.29,-135.8 740.29,-132.3 740.29,-139.3"/>
</g>
<!-- AppComponent  -->
<g id="node12" class="node">
<title>AppComponent </title>
<polygon fill="#80b1d3" stroke="black" points="846.44,-214.8 737.56,-214.8 737.56,-178.8 846.44,-178.8 846.44,-214.8"/>
<text text-anchor="middle" x="792" y="-192.6" font-family="Times,serif" font-size="14.00">AppComponent </text>
</g>
<!-- AppModule&#45;&gt;AppComponent  -->
<g id="edge11" class="edge">
<title>AppModule&#45;&gt;AppComponent </title>
<path fill="none" stroke="black" stroke-dasharray="1,5" d="M792,-149.91C792,-149.91 792,-168.79 792,-168.79"/>
<polygon fill="black" stroke="black" points="788.5,-168.79 792,-178.79 795.5,-168.79 788.5,-168.79"/>
</g>
<!-- AppRoutingModule -->
<g id="node11" class="node">
<title>AppRoutingModule</title>
<polygon fill="#8dd3c7" stroke="black" points="152.27,-84.8 149.27,-88.8 128.27,-88.8 125.27,-84.8 23.73,-84.8 23.73,-48.8 152.27,-48.8 152.27,-84.8"/>
<text text-anchor="middle" x="88" y="-62.6" font-family="Times,serif" font-size="14.00">AppRoutingModule</text>
</g>
<!-- AppRoutingModule&#45;&gt;AppModule -->
<g id="edge10" class="edge">
<title>AppRoutingModule&#45;&gt;AppModule</title>
<path fill="none" stroke="black" d="M88,-84.81C88,-107.29 88,-142.8 88,-142.8 88,-142.8 740.33,-142.8 740.33,-142.8"/>
<polygon fill="black" stroke="black" points="740.33,-146.3 750.33,-142.8 740.33,-139.3 740.33,-146.3"/>
</g>
</g>
</svg>
